# xmcd CD database file
#
# Track frame offsets:
#	150
#	31212
#	48523
#	70852
#	106923
#	125779
#	161913
#	183185
#	217091
#	244841
#	277364
#	296507
#
# Disc length: 4316 seconds
#
# Revision: 0
# Processed by: cddbd v1.5.2PL0 Copyright (c) Steve Scherf et al.
# Submitted via: CDex 1.51
#
DISCID=bf10da0c
DTITLE=Wilm Schulte Quartett - Holiday Impressions
DYEAR=1998
DGENRE=Jazz
TTITLE0=Satin Doll
TTITLE1=Now's The Time
TTITLE2=Take The "A"Train
TTITLE3=When Sunny Gets Blue
TTITLE4=Doxy
TTITLE5=Autumn Leaves
TTITLE6=There Is No Greater Love
TTITLE7=I Rememeber Clifford
TTITLE8=On Green Dolphin Street
TTITLE9=Softly, As In A Morning Sunrise
TTITLE10=Beautiful Wind
TTITLE11=Holiday Impressions
EXTD=YEAR: 1998
EXTT0=
EXTT1=
EXTT2=
EXTT3=
EXTT4=
EXTT5=
EXTT6=
EXTT7=
EXTT8=
EXTT9=
EXTT10=
EXTT11=
PLAYORDER=
